<mxfile host="Electron" modified="2024-08-12T09:48:20.477Z" agent="Mozilla/5.0 (X11; Linux x86_64) AppleWebKit/537.36 (KHTML, like Gecko) draw.io/21.3.7 Chrome/112.0.5615.204 Electron/24.5.0 Safari/537.36" etag="yT7ImcBmjU9docRG4Xt_" version="21.3.7" type="device">
  <diagram name="Page-1" id="rRoijQG2nSl0_Yrbf1NP">
    <mxGraphModel dx="1728" dy="998" grid="1" gridSize="10" guides="1" tooltips="1" connect="1" arrows="1" fold="1" page="1" pageScale="1" pageWidth="1169" pageHeight="827" math="0" shadow="0">
      <root>
        <mxCell id="0" />
        <mxCell id="1" parent="0" />
        <mxCell id="VzflnH-gn_2TgnfN93_D-8" value="" style="edgeStyle=orthogonalEdgeStyle;rounded=0;orthogonalLoop=1;jettySize=auto;html=1;" edge="1" parent="1" source="VzflnH-gn_2TgnfN93_D-1" target="VzflnH-gn_2TgnfN93_D-6">
          <mxGeometry relative="1" as="geometry" />
        </mxCell>
        <mxCell id="VzflnH-gn_2TgnfN93_D-1" value="Backend" style="rounded=0;whiteSpace=wrap;html=1;" vertex="1" parent="1">
          <mxGeometry x="360" y="360" width="120" height="40" as="geometry" />
        </mxCell>
        <mxCell id="VzflnH-gn_2TgnfN93_D-2" value="Frontend" style="rounded=0;whiteSpace=wrap;html=1;" vertex="1" parent="1">
          <mxGeometry x="200" y="360" width="120" height="40" as="geometry" />
        </mxCell>
        <mxCell id="VzflnH-gn_2TgnfN93_D-11" value="" style="edgeStyle=orthogonalEdgeStyle;rounded=0;orthogonalLoop=1;jettySize=auto;html=1;" edge="1" parent="1" source="VzflnH-gn_2TgnfN93_D-3" target="VzflnH-gn_2TgnfN93_D-5">
          <mxGeometry relative="1" as="geometry" />
        </mxCell>
        <mxCell id="VzflnH-gn_2TgnfN93_D-17" value="" style="edgeStyle=orthogonalEdgeStyle;rounded=0;orthogonalLoop=1;jettySize=auto;html=1;" edge="1" parent="1" source="VzflnH-gn_2TgnfN93_D-3" target="VzflnH-gn_2TgnfN93_D-15">
          <mxGeometry relative="1" as="geometry" />
        </mxCell>
        <mxCell id="VzflnH-gn_2TgnfN93_D-3" value="dump-dom" style="rounded=0;whiteSpace=wrap;html=1;" vertex="1" parent="1">
          <mxGeometry x="520" y="280" width="120" height="40" as="geometry" />
        </mxCell>
        <mxCell id="VzflnH-gn_2TgnfN93_D-16" style="edgeStyle=orthogonalEdgeStyle;rounded=0;orthogonalLoop=1;jettySize=auto;html=1;entryX=1;entryY=0.5;entryDx=0;entryDy=0;exitX=0.5;exitY=0;exitDx=0;exitDy=0;exitPerimeter=0;" edge="1" parent="1" source="VzflnH-gn_2TgnfN93_D-5" target="VzflnH-gn_2TgnfN93_D-15">
          <mxGeometry relative="1" as="geometry" />
        </mxCell>
        <mxCell id="VzflnH-gn_2TgnfN93_D-22" value="" style="edgeStyle=orthogonalEdgeStyle;rounded=0;orthogonalLoop=1;jettySize=auto;html=1;startArrow=classic;startFill=1;endArrow=none;endFill=0;" edge="1" parent="1" source="VzflnH-gn_2TgnfN93_D-5" target="VzflnH-gn_2TgnfN93_D-20">
          <mxGeometry relative="1" as="geometry" />
        </mxCell>
        <mxCell id="VzflnH-gn_2TgnfN93_D-5" value="DB" style="shape=cylinder3;whiteSpace=wrap;html=1;boundedLbl=1;backgroundOutline=1;size=15;" vertex="1" parent="1">
          <mxGeometry x="680" y="270" width="60" height="60" as="geometry" />
        </mxCell>
        <mxCell id="VzflnH-gn_2TgnfN93_D-9" value="" style="edgeStyle=orthogonalEdgeStyle;rounded=0;orthogonalLoop=1;jettySize=auto;html=1;" edge="1" parent="1" source="VzflnH-gn_2TgnfN93_D-6" target="VzflnH-gn_2TgnfN93_D-3">
          <mxGeometry relative="1" as="geometry" />
        </mxCell>
        <mxCell id="VzflnH-gn_2TgnfN93_D-14" value="" style="edgeStyle=orthogonalEdgeStyle;rounded=0;orthogonalLoop=1;jettySize=auto;html=1;" edge="1" parent="1" source="VzflnH-gn_2TgnfN93_D-6" target="VzflnH-gn_2TgnfN93_D-13">
          <mxGeometry relative="1" as="geometry" />
        </mxCell>
        <mxCell id="VzflnH-gn_2TgnfN93_D-6" value="Queue" style="rounded=0;whiteSpace=wrap;html=1;" vertex="1" parent="1">
          <mxGeometry x="520" y="360" width="120" height="40" as="geometry" />
        </mxCell>
        <mxCell id="VzflnH-gn_2TgnfN93_D-7" value="" style="endArrow=none;dashed=1;html=1;dashPattern=1 3;strokeWidth=2;rounded=0;" edge="1" parent="1">
          <mxGeometry width="50" height="50" relative="1" as="geometry">
            <mxPoint x="340" y="325" as="sourcePoint" />
            <mxPoint x="340" y="435" as="targetPoint" />
          </mxGeometry>
        </mxCell>
        <mxCell id="VzflnH-gn_2TgnfN93_D-10" value="j (1-n)" style="text;html=1;strokeColor=none;fillColor=none;align=center;verticalAlign=middle;whiteSpace=wrap;rounded=0;" vertex="1" parent="1">
          <mxGeometry x="580" y="320" width="60" height="40" as="geometry" />
        </mxCell>
        <mxCell id="VzflnH-gn_2TgnfN93_D-12" value="(k, h)" style="text;html=1;strokeColor=none;fillColor=none;align=center;verticalAlign=middle;whiteSpace=wrap;rounded=0;" vertex="1" parent="1">
          <mxGeometry x="640" y="240" width="40" height="40" as="geometry" />
        </mxCell>
        <mxCell id="VzflnH-gn_2TgnfN93_D-21" value="" style="edgeStyle=orthogonalEdgeStyle;rounded=0;orthogonalLoop=1;jettySize=auto;html=1;" edge="1" parent="1" source="VzflnH-gn_2TgnfN93_D-13" target="VzflnH-gn_2TgnfN93_D-20">
          <mxGeometry relative="1" as="geometry" />
        </mxCell>
        <mxCell id="VzflnH-gn_2TgnfN93_D-13" value="git-clone" style="rounded=0;whiteSpace=wrap;html=1;" vertex="1" parent="1">
          <mxGeometry x="520" y="440" width="120" height="40" as="geometry" />
        </mxCell>
        <mxCell id="VzflnH-gn_2TgnfN93_D-15" value="fs" style="rounded=0;whiteSpace=wrap;html=1;" vertex="1" parent="1">
          <mxGeometry x="520" y="200" width="120" height="40" as="geometry" />
        </mxCell>
        <mxCell id="VzflnH-gn_2TgnfN93_D-18" value="&lt;div style=&quot;text-align: justify;&quot;&gt;&lt;ul&gt;&lt;li&gt;&lt;span style=&quot;background-color: initial;&quot;&gt;dom.html&lt;/span&gt;&lt;/li&gt;&lt;li&gt;&lt;span style=&quot;background-color: initial;&quot;&gt;readability.html&lt;/span&gt;&lt;/li&gt;&lt;li&gt;&lt;span style=&quot;background-color: initial;&quot;&gt;metadata.json&lt;/span&gt;&lt;/li&gt;&lt;li&gt;&lt;span style=&quot;background-color: initial;&quot;&gt;favicon.png&lt;/span&gt;&lt;/li&gt;&lt;/ul&gt;&lt;/div&gt;" style="text;html=1;strokeColor=none;fillColor=none;align=center;verticalAlign=middle;whiteSpace=wrap;rounded=0;" vertex="1" parent="1">
          <mxGeometry x="530" y="150" width="60" height="30" as="geometry" />
        </mxCell>
        <mxCell id="VzflnH-gn_2TgnfN93_D-19" value="h" style="text;html=1;strokeColor=none;fillColor=none;align=center;verticalAlign=middle;whiteSpace=wrap;rounded=0;" vertex="1" parent="1">
          <mxGeometry x="520" y="240" width="40" height="40" as="geometry" />
        </mxCell>
        <mxCell id="VzflnH-gn_2TgnfN93_D-20" value="MS" style="shape=cylinder3;whiteSpace=wrap;html=1;boundedLbl=1;backgroundOutline=1;size=15;" vertex="1" parent="1">
          <mxGeometry x="680" y="430" width="60" height="60" as="geometry" />
        </mxCell>
        <mxCell id="VzflnH-gn_2TgnfN93_D-23" value="(k, h)" style="text;html=1;strokeColor=none;fillColor=none;align=center;verticalAlign=middle;whiteSpace=wrap;rounded=0;" vertex="1" parent="1">
          <mxGeometry x="720" y="360" width="40" height="40" as="geometry" />
        </mxCell>
        <mxCell id="VzflnH-gn_2TgnfN93_D-24" value="API" style="rounded=0;whiteSpace=wrap;html=1;" vertex="1" parent="1">
          <mxGeometry x="280" y="280" width="120" height="40" as="geometry" />
        </mxCell>
      </root>
    </mxGraphModel>
  </diagram>
</mxfile>
